<mxfile host="app.diagrams.net" modified="2024-01-14T09:06:21.812Z" agent="Mozilla/5.0 (Windows NT 10.0; Win64; x64) AppleWebKit/537.36 (KHTML, like Gecko) Chrome/119.0.0.0 Safari/537.36 OPR/105.0.0.0" etag="93ehcmSnM6ZKWjxbeuVZ" version="22.1.18" type="github">
  <diagram name="Page-1" id="pKRi-2CXvt5ajzWIOiI3">
    <mxGraphModel dx="2390" dy="1539" grid="0" gridSize="10" guides="1" tooltips="1" connect="1" arrows="1" fold="1" page="0" pageScale="1" pageWidth="900" pageHeight="1600" math="0" shadow="0">
      <root>
        <mxCell id="0" />
        <mxCell id="1" parent="0" />
        <mxCell id="ANNcPmR0CTp2oZjLNt9e-12" style="rounded=0;orthogonalLoop=1;jettySize=auto;html=1;entryX=0;entryY=0.5;entryDx=0;entryDy=0;" edge="1" parent="1" source="ANNcPmR0CTp2oZjLNt9e-1" target="ANNcPmR0CTp2oZjLNt9e-2">
          <mxGeometry relative="1" as="geometry" />
        </mxCell>
        <mxCell id="ANNcPmR0CTp2oZjLNt9e-13" style="rounded=0;orthogonalLoop=1;jettySize=auto;html=1;entryX=0;entryY=0.5;entryDx=0;entryDy=0;" edge="1" parent="1" source="ANNcPmR0CTp2oZjLNt9e-1" target="ANNcPmR0CTp2oZjLNt9e-3">
          <mxGeometry relative="1" as="geometry" />
        </mxCell>
        <mxCell id="ANNcPmR0CTp2oZjLNt9e-14" style="rounded=0;orthogonalLoop=1;jettySize=auto;html=1;entryX=0;entryY=0.5;entryDx=0;entryDy=0;" edge="1" parent="1" source="ANNcPmR0CTp2oZjLNt9e-1" target="ANNcPmR0CTp2oZjLNt9e-4">
          <mxGeometry relative="1" as="geometry" />
        </mxCell>
        <mxCell id="ANNcPmR0CTp2oZjLNt9e-15" style="rounded=0;orthogonalLoop=1;jettySize=auto;html=1;entryX=0;entryY=0.5;entryDx=0;entryDy=0;" edge="1" parent="1" source="ANNcPmR0CTp2oZjLNt9e-1" target="ANNcPmR0CTp2oZjLNt9e-5">
          <mxGeometry relative="1" as="geometry" />
        </mxCell>
        <mxCell id="ANNcPmR0CTp2oZjLNt9e-16" style="rounded=0;orthogonalLoop=1;jettySize=auto;html=1;entryX=0;entryY=0.5;entryDx=0;entryDy=0;" edge="1" parent="1" source="ANNcPmR0CTp2oZjLNt9e-1" target="ANNcPmR0CTp2oZjLNt9e-7">
          <mxGeometry relative="1" as="geometry" />
        </mxCell>
        <mxCell id="ANNcPmR0CTp2oZjLNt9e-17" style="rounded=0;orthogonalLoop=1;jettySize=auto;html=1;entryX=0;entryY=0.5;entryDx=0;entryDy=0;" edge="1" parent="1" source="ANNcPmR0CTp2oZjLNt9e-1" target="ANNcPmR0CTp2oZjLNt9e-8">
          <mxGeometry relative="1" as="geometry" />
        </mxCell>
        <mxCell id="ANNcPmR0CTp2oZjLNt9e-18" style="rounded=0;orthogonalLoop=1;jettySize=auto;html=1;entryX=0;entryY=0.5;entryDx=0;entryDy=0;" edge="1" parent="1" source="ANNcPmR0CTp2oZjLNt9e-1" target="ANNcPmR0CTp2oZjLNt9e-9">
          <mxGeometry relative="1" as="geometry" />
        </mxCell>
        <mxCell id="ANNcPmR0CTp2oZjLNt9e-19" style="rounded=0;orthogonalLoop=1;jettySize=auto;html=1;entryX=0;entryY=0.5;entryDx=0;entryDy=0;" edge="1" parent="1" source="ANNcPmR0CTp2oZjLNt9e-1" target="ANNcPmR0CTp2oZjLNt9e-10">
          <mxGeometry relative="1" as="geometry" />
        </mxCell>
        <mxCell id="ANNcPmR0CTp2oZjLNt9e-20" style="rounded=0;orthogonalLoop=1;jettySize=auto;html=1;entryX=0;entryY=0.5;entryDx=0;entryDy=0;" edge="1" parent="1" source="ANNcPmR0CTp2oZjLNt9e-1" target="ANNcPmR0CTp2oZjLNt9e-11">
          <mxGeometry relative="1" as="geometry" />
        </mxCell>
        <mxCell id="ANNcPmR0CTp2oZjLNt9e-1" value="&lt;font style=&quot;font-size: 22px;&quot;&gt;Người dùng&lt;/font&gt;" style="shape=umlActor;verticalLabelPosition=bottom;verticalAlign=top;html=1;outlineConnect=0;fontSize=18;" vertex="1" parent="1">
          <mxGeometry x="-86" y="41.5" width="60.5" height="121" as="geometry" />
        </mxCell>
        <mxCell id="ANNcPmR0CTp2oZjLNt9e-21" style="rounded=0;orthogonalLoop=1;jettySize=auto;html=1;entryX=0;entryY=0.5;entryDx=0;entryDy=0;exitX=1;exitY=0.5;exitDx=0;exitDy=0;" edge="1" parent="1" source="ANNcPmR0CTp2oZjLNt9e-2" target="ANNcPmR0CTp2oZjLNt9e-6">
          <mxGeometry relative="1" as="geometry" />
        </mxCell>
        <mxCell id="ANNcPmR0CTp2oZjLNt9e-2" value="&lt;font style=&quot;font-size: 18px;&quot;&gt;UC1.1 Chạy và dừng nhạc&lt;/font&gt;" style="ellipse;whiteSpace=wrap;html=1;fontSize=18;fillColor=#dae8fc;strokeColor=#6c8ebf;" vertex="1" parent="1">
          <mxGeometry x="146" y="-356" width="278" height="58" as="geometry" />
        </mxCell>
        <mxCell id="ANNcPmR0CTp2oZjLNt9e-3" value="&lt;font style=&quot;font-size: 18px;&quot;&gt;UC1.2&amp;nbsp;Chuyển nhạc&lt;/font&gt;" style="ellipse;whiteSpace=wrap;html=1;fontSize=18;fillColor=#dae8fc;strokeColor=#6c8ebf;" vertex="1" parent="1">
          <mxGeometry x="146" y="-281" width="278" height="58" as="geometry" />
        </mxCell>
        <mxCell id="ANNcPmR0CTp2oZjLNt9e-4" value="&lt;font style=&quot;font-size: 18px;&quot;&gt;UC1.3 Chế độ phát&lt;/font&gt;" style="ellipse;whiteSpace=wrap;html=1;fontSize=18;fillColor=#dae8fc;strokeColor=#6c8ebf;" vertex="1" parent="1">
          <mxGeometry x="148" y="-210" width="278" height="58" as="geometry" />
        </mxCell>
        <mxCell id="ANNcPmR0CTp2oZjLNt9e-5" value="&lt;font style=&quot;font-size: 18px;&quot;&gt;UC1.4 Tua nhạc&lt;/font&gt;" style="ellipse;whiteSpace=wrap;html=1;fontSize=18;fillColor=#dae8fc;strokeColor=#6c8ebf;" vertex="1" parent="1">
          <mxGeometry x="148" y="-132" width="278" height="58" as="geometry" />
        </mxCell>
        <mxCell id="ANNcPmR0CTp2oZjLNt9e-6" value="&lt;font style=&quot;font-size: 18px;&quot;&gt;Chạy nhạc ở nền&lt;/font&gt;" style="ellipse;whiteSpace=wrap;html=1;fontSize=18;fillColor=#dae8fc;strokeColor=#6c8ebf;" vertex="1" parent="1">
          <mxGeometry x="513" y="-356" width="278" height="58" as="geometry" />
        </mxCell>
        <mxCell id="ANNcPmR0CTp2oZjLNt9e-7" value="&lt;font style=&quot;font-size: 18px;&quot;&gt;UC2.1 Hiển thị nhạc&lt;/font&gt;" style="ellipse;whiteSpace=wrap;html=1;fontSize=18;fillColor=#ffe6cc;strokeColor=#d79b00;" vertex="1" parent="1">
          <mxGeometry x="181" y="-33" width="278" height="58" as="geometry" />
        </mxCell>
        <mxCell id="ANNcPmR0CTp2oZjLNt9e-8" value="&lt;font style=&quot;font-size: 18px;&quot;&gt;UC2.2 Hiển thị nhạc sĩ&lt;/font&gt;" style="ellipse;whiteSpace=wrap;html=1;fontSize=18;fillColor=#ffe6cc;strokeColor=#d79b00;" vertex="1" parent="1">
          <mxGeometry x="161" y="50" width="278" height="58" as="geometry" />
        </mxCell>
        <mxCell id="ANNcPmR0CTp2oZjLNt9e-9" value="&lt;font style=&quot;font-size: 18px;&quot;&gt;UC2.3 Thay đổi thông tin nhạc&lt;/font&gt;" style="ellipse;whiteSpace=wrap;html=1;fontSize=18;fillColor=#ffe6cc;strokeColor=#d79b00;" vertex="1" parent="1">
          <mxGeometry x="157" y="133" width="278" height="58" as="geometry" />
        </mxCell>
        <mxCell id="ANNcPmR0CTp2oZjLNt9e-10" value="&lt;font style=&quot;font-size: 18px;&quot;&gt;UC2.4 Bài yêu thích&lt;/font&gt;" style="ellipse;whiteSpace=wrap;html=1;fontSize=18;fillColor=#ffe6cc;strokeColor=#d79b00;" vertex="1" parent="1">
          <mxGeometry x="148" y="203" width="278" height="58" as="geometry" />
        </mxCell>
        <mxCell id="ANNcPmR0CTp2oZjLNt9e-11" value="&lt;font style=&quot;font-size: 18px;&quot;&gt;UC3.1 Tải nhạc&lt;/font&gt;" style="ellipse;whiteSpace=wrap;html=1;fontSize=18;fillColor=#d5e8d4;strokeColor=#82b366;" vertex="1" parent="1">
          <mxGeometry x="140" y="303" width="278" height="58" as="geometry" />
        </mxCell>
      </root>
    </mxGraphModel>
  </diagram>
</mxfile>
